#!OML:ASF H:\Terrain\Patient Classification 1\Takeo\Monday\TakeoMonday.ASF
:FULLY-SPECIFIED
:DEGREES
115
root 9.47927 17.1284 -10.886 -4.70254 -4.10944 -2.6383
lowerback 7.22396 0.38847 3.99856
upperback 3.01533 0.798145 1.26305
thorax -0.897243 0.417571 -1.00536
lowerneck -12.1645 2.62776 -0.97472
upperneck -1.08425 3.6654 -1.62507
head 1.73753 1.78034 -0.160091
rclavicle 3.95085e-015 2.5842e-015
rhumerus -22.2866 6.3652 -87.6525
rradius 32.0569
rwrist -11.603
rhand -21.8981 15.8355
rfingers 7.12502
rthumb 4.50715 -14.0966
lclavicle 3.95085e-015 2.5842e-015
lhumerus -42.6759 20.7359 74.9895
lradius 18.5343
lwrist 10.8394
lhand -22.8813 21.1489
lfingers 7.12502
lthumb 3.55773 51.0989
rfemur -2.53304 4.72307 28.9281
rtibia 29.715
rfoot -20.8406 -3.05737
rtoes -0.257178
lfemur -25.0677 0.853761 -19.2873
ltibia 62.5096
lfoot -7.97402 8.46778
ltoes -17.5033
116
root 9.48273 17.1287 -10.7266 -4.70818 -4.46873 -2.49671
lowerback 7.25302 0.478284 3.93398
upperback 3.07435 0.911017 1.16811
thorax -0.846729 0.475451 -1.07553
lowerneck -11.8624 2.69679 -1.33233
upperneck -1.25298 3.78728 -1.23833
head 1.6123 1.85599 0.0219621
rclavicle 1.963e-015 -7.35503e-015
rhumerus -21.3427 7.66013 -87.6631
rradius 33.0052
rwrist -12.3568
rhand -21.9896 16.3258
rfingers 7.12502
rthumb 4.41883 -13.6081
lclavicle 1.963e-015 -7.35503e-015
lhumerus -43.2024 20.2497 75.0679
lradius 18.8045
lwrist 11.7632
lhand -22.3248 21.323
lfingers 7.12502
lthumb 4.0951 51.2634
rfemur -1.5741 4.68029 28.7397
rtibia 29.0283
rfoot -21.2283 -2.57701
rtoes 0.335916
lfemur -25.5654 0.535564 -19.3344
ltibia 60.3591
lfoot -8.29824 8.48586
ltoes -16.3888
117
root 9.48599 17.1383 -10.5716 -4.67382 -4.8676 -2.52753
lowerback 7.35117 0.570568 4.09531
upperback 3.07067 1.04795 1.07174
thorax -0.893066 0.5445 -1.27698
lowerneck -11.5556 2.94737 -1.3667
upperneck -1.27564 4.11129 -0.927916
head 1.54213 2.02778 0.134997
rclavicle 2.06985e-014 1.96797e-014
rhumerus -20.5169 8.72073 -87.6894
rradius 34.1165
rwrist -13.1323
rhand -22.162 16.6284
rfingers 7.12502
rthumb 4.25236 -13.3089
lclavicle 2.06985e-014 1.96797e-014
lhumerus -43.7098 19.6223 75.1595
lradius 19.1351
lwrist 12.6802
lhand -22.1672 21.4204
lfingers 7.12502
lthumb 4.24727 51.3578
rfemur -0.632006 4.97406 28.7904
rtibia 28.2801
rfoot -21.4861 -2.29618
rtoes 0.965966
lfemur -26.0495 0.222467 -19.1343
ltibia 57.9496
lfoot -8.61033 8.55264
ltoes -13.7226
118
root 9.49054 17.1625 -10.415 -4.62845 -5.19137 -2.46546
lowerback 7.4602 0.663609 4.18307
upperback 3.04847 1.18192 0.947295
thorax -0.964585 0.610947 -1.46674
lowerneck -11.6588 2.99234 -0.861326
upperneck -1.07185 4.11993 -1.32944
head 1.64804 2.01797 -0.0714751
rclavicle -2.33199e-014 4.77083e-015
rhumerus -19.8571 9.58525 -87.6619
rradius 35.5286
rwrist -13.7845
rhand -22.4119 16.6677
rfingers 7.12502
rthumb 4.011 -13.2743
lclavicle -2.33199e-014 4.77083e-015
lhumerus -44.3326 19.5281 74.853
lradius 19.4082
lwrist 12.9183
lhand -22.0818 21.6964
lfingers 7.12502
lthumb 4.32975 51.6322
rfemur 0.294694 5.07801 28.7074
rtibia 27.4506
rfoot -21.2981 -2.15018
rtoes 1.22398
lfemur -26.4453 -0.127574 -19.0563
ltibia 55.318
lfoot -8.98455 8.88935
ltoes -11.706
119
root 9.49702 17.177 -10.2545 -4.57483 -5.42558 -2.21049
lowerback 7.3903 0.739605 4.01078
upperback 3.0995 1.26418 0.849184
thorax -0.87058 0.653794 -1.47598
lowerneck -11.8738 2.8992 -0.415069
upperneck -0.925059 3.96056 -1.99081
head 1.7608 1.91673 -0.358473
rclavicle 1.21756e-015 -2.3059e-014
rhumerus -19.1619 10.601 -87.4258
rradius 37.0395
rwrist -14.5488
rhand -22.4002 16.2809
rfingers 7.12502
rthumb 4.0223 -13.6609
lclavicle 1.21756e-015 -2.3059e-014
lhumerus -44.8842 19.7318 74.5969
lradius 19.5262
lwrist 12.99
lhand -21.8028 22.1415
lfingers 7.12502
lthumb 4.59915 52.0716
rfemur 1.28075 4.8797 28.3566
rtibia 26.4686
rfoot -20.901 -1.91498
rtoes 0.918535
lfemur -26.8361 -0.504175 -19.198
ltibia 52.5732
lfoot -9.18408 9.27382
ltoes -10.6951
120
root 9.5052 17.1772 -10.0934 -4.62423 -5.58912 -2.14512
lowerback 7.45913 0.768559 4.02418
upperback 3.16061 1.30447 0.818896
thorax -0.842224 0.675414 -1.51835
lowerneck -11.6676 2.89255 -0.237883
upperneck -1.02116 3.93541 -2.36611
head 1.70574 1.89588 -0.512239
rclavicle -8.89561e-015 1.07344e-014
rhumerus -18.485 11.5882 -87.1211
rradius 38.4427
rwrist -15.2509
rhand -22.4826 16.1481
rfingers 7.12502
rthumb 3.94275 -13.7952
lclavicle -8.89561e-015 1.07344e-014
lhumerus -45.4135 19.638 74.5941
lradius 19.7441
lwrist 13.6198
lhand -21.8221 22.2796
lfingers 7.12502
lthumb 4.58053 52.2101
rfemur 2.46098 4.632 28.1931
rtibia 25.3926
rfoot -20.3824 -1.50196
rtoes 0.830506
lfemur -27.041 -1.01128 -19.0916
ltibia 49.7752
lfoot -9.40825 9.60657
ltoes -11.7422
